<svg xmlns="http://www.w3.org/2000/svg" xmlns:xlink="http://www.w3.org/1999/xlink" viewBox="0 0 504.73 66.85"><defs><style>.cls-1{fill:#f36c21;}.cls-2{isolation:isolate;}.cls-3{fill:#fff;}.cls-4{clip-path:url(#clip-path);}.cls-5{mix-blend-mode:screen;fill:url(#linear-gradient);}.cls-6{font-size:18.18px;fill:#4c94d0;font-family:MyriadPro-Regular, Myriad Pro;}</style><clipPath id="clip-path" transform="translate(0 18.24)"><path class="cls-1" d="M468,11.84V36.76a11.84,11.84,0,0,1-11.83,11.85H391.83V0h64.34A11.84,11.84,0,0,1,468,11.84Z"/></clipPath><linearGradient id="linear-gradient" x1="393.8" y1="39.8" x2="393.8" y2="-18.24" gradientTransform="matrix(-1, 0, 0, 1, 840.48, 0)" gradientUnits="userSpaceOnUse"><stop offset="0" stop-color="#1a1a1a"/><stop offset="1" stop-color="#4b4b4b"/></linearGradient></defs><g class="cls-2"><g id="Layer_2" data-name="Layer 2"><g id="Layer_1-2" data-name="Layer 1"><path class="cls-3" d="M391.83,0V48.61h-380A11.84,11.84,0,0,1,0,36.76V11.84A11.84,11.84,0,0,1,11.83,0Z" transform="translate(0 18.24)"/><path class="cls-1" d="M468,11.84V36.76a11.84,11.84,0,0,1-11.83,11.85H391.83V0h64.34A11.84,11.84,0,0,1,468,11.84Z" transform="translate(0 18.24)"/><g class="cls-4"><path class="cls-3" d="M422.88,17.33a6.33,6.33,0,0,1,9.58,8.23l5.94,5.94a1,1,0,0,1,0,1.35,1,1,0,0,1-1.35,0l-5.94-5.94a6.4,6.4,0,0,1-3.75,1.23,6.34,6.34,0,0,1-4.48-10.81Zm.05,4.48a4.44,4.44,0,1,0,1.3-3.13A4.38,4.38,0,0,0,422.93,21.81Z" transform="translate(0 18.24)"/><path class="cls-5" d="M397.8-18.24h91a37.56,37.56,0,0,1,8.78,8.77c13.79,19.42,3.65,45.6,2.17,49.27a204.55,204.55,0,0,1-60.3-13.52,204.51,204.51,0,0,1-50-28.18A12.38,12.38,0,0,1,389-9.47C390.77-15.83,397.22-18,397.8-18.24Z" transform="translate(0 18.24)"/></g><text class="cls-6" transform="translate(76.66 47.88)">...</text></g></g></g></svg>