<svg xmlns="http://www.w3.org/2000/svg" xmlns:xlink="http://www.w3.org/1999/xlink" viewBox="0 0 86.22 17.7"><defs><style>.cls-1,.cls-3{opacity:0.5;}.cls-1{fill:url(#Áåçûìÿííûé_ãðàäèåíò_5);}.cls-2{isolation:isolate;}.cls-3{fill:url(#Áåçûìÿííûé_ãðàäèåíò_5-2);}.cls-4{clip-path:url(#clip-path);}.cls-5,.cls-7{fill:#fff;}.cls-6{mix-blend-mode:screen;fill:url(#linear-gradient);}.cls-7{font-size:5.68px;font-family:CenturyGothic, Century Gothic;}</style><linearGradient id="Áåçûìÿííûé_ãðàäèåíò_5" x1="56.34" y1="6.43" x2="76.5" y2="6.43" gradientUnits="userSpaceOnUse"><stop offset="0" stop-color="#e9f3f2"/><stop offset="0.33" stop-color="#eee8f1"/><stop offset="0.66" stop-color="#e1e7f5"/><stop offset="0.93" stop-color="#deeef4"/><stop offset="1" stop-color="#ddf1f4"/></linearGradient><linearGradient id="Áåçûìÿííûé_ãðàäèåíò_5-2" x1="0" y1="6.43" x2="56.34" y2="6.43" xlink:href="#Áåçûìÿííûé_ãðàäèåíò_5"/><clipPath id="clip-path" transform="translate(0 4.83)"><path class="cls-1" d="M76.5,3.13v6.6a3.14,3.14,0,0,1-3.13,3.14h-17V0h17A3.13,3.13,0,0,1,76.5,3.13Z"/></clipPath><linearGradient id="linear-gradient" x1="426.21" y1="10.54" x2="426.21" y2="-4.83" gradientTransform="matrix(-1, 0, 0, 1, 497.07, 0)" gradientUnits="userSpaceOnUse"><stop offset="0" stop-color="#1a1a1a"/><stop offset="1" stop-color="#4b4b4b"/></linearGradient></defs><g class="cls-2"><g id="Layer_2" data-name="Layer 2"><g id="Layer_1-2" data-name="Layer 1"><path class="cls-3" d="M56.34,0V12.87H3.13A3.14,3.14,0,0,1,0,9.73V3.14A3.13,3.13,0,0,1,3.13,0Z" transform="translate(0 4.83)"/><path class="cls-1" d="M76.5,3.13v6.6a3.14,3.14,0,0,1-3.13,3.14h-17V0h17A3.13,3.13,0,0,1,76.5,3.13Z" transform="translate(0 4.83)"/><g class="cls-4"><path class="cls-5" d="M64.56,4.59a1.64,1.64,0,0,1,1.18-.49,1.66,1.66,0,0,1,1.19.49,1.7,1.7,0,0,1,.49,1.18,1.62,1.62,0,0,1-.33,1l1.57,1.57a.25.25,0,0,1,0,.36.26.26,0,0,1-.17.07.29.29,0,0,1-.18-.07L66.74,7.12a1.71,1.71,0,0,1-1,.33,1.68,1.68,0,0,1-1.18-2.86Zm0,1.18a1.16,1.16,0,0,0,.34.83,1.18,1.18,0,0,0,.83.35,1.2,1.2,0,0,0,1.18-1.18,1.2,1.2,0,0,0-.35-.83,1.16,1.16,0,0,0-.83-.34,1.16,1.16,0,0,0-1.17,1.17Z" transform="translate(0 4.83)"/><path class="cls-6" d="M57.92-4.83H82a10.13,10.13,0,0,1,2.32,2.32c3.65,5.14,1,12.08.58,13.05A54.38,54.38,0,0,1,68.94,7,54.56,54.56,0,0,1,55.7-.5a3.32,3.32,0,0,1-.1-2A3.66,3.66,0,0,1,57.92-4.83Z" transform="translate(0 4.83)"/></g><text class="cls-7" transform="translate(3.88 12.83)">social media post</text></g></g></g></svg>