<svg xmlns="http://www.w3.org/2000/svg" xmlns:xlink="http://www.w3.org/1999/xlink" viewBox="0 0 133.61 17.7"><defs><style>.cls-1,.cls-3{opacity:0.5;}.cls-1{fill:url(#Áåçûìÿííûé_ãðàäèåíò_5);}.cls-2{isolation:isolate;}.cls-3{fill:url(#Áåçûìÿííûé_ãðàäèåíò_5-2);}.cls-4{clip-path:url(#clip-path);}.cls-5,.cls-7{fill:#fff;}.cls-6{mix-blend-mode:screen;fill:url(#linear-gradient);}.cls-7{font-size:5.68px;font-family:CenturyGothic, Century Gothic;}</style><linearGradient id="Áåçûìÿííûé_ãðàäèåíò_5" x1="103.72" y1="6.43" x2="123.88" y2="6.43" gradientUnits="userSpaceOnUse"><stop offset="0" stop-color="#e9f3f2"/><stop offset="0.33" stop-color="#eee8f1"/><stop offset="0.66" stop-color="#e1e7f5"/><stop offset="0.93" stop-color="#deeef4"/><stop offset="1" stop-color="#ddf1f4"/></linearGradient><linearGradient id="Áåçûìÿííûé_ãðàäèåíò_5-2" x1="0" y1="6.43" x2="103.72" y2="6.43" xlink:href="#Áåçûìÿííûé_ãðàäèåíò_5"/><clipPath id="clip-path" transform="translate(0 4.83)"><path class="cls-1" d="M123.88,3.13v6.6a3.14,3.14,0,0,1-3.13,3.14h-17V0h17A3.13,3.13,0,0,1,123.88,3.13Z"/></clipPath><linearGradient id="linear-gradient" x1="208.22" y1="10.54" x2="208.22" y2="-4.83" gradientTransform="matrix(-1, 0, 0, 1, 326.46, 0)" gradientUnits="userSpaceOnUse"><stop offset="0" stop-color="#1a1a1a"/><stop offset="1" stop-color="#4b4b4b"/></linearGradient></defs><g class="cls-2"><g id="Layer_2" data-name="Layer 2"><g id="Layer_1-2" data-name="Layer 1"><path class="cls-3" d="M103.72,0V12.87H3.13A3.14,3.14,0,0,1,0,9.73V3.13A3.13,3.13,0,0,1,3.13,0Z" transform="translate(0 4.83)"/><path class="cls-1" d="M123.88,3.13v6.6a3.14,3.14,0,0,1-3.13,3.14h-17V0h17A3.13,3.13,0,0,1,123.88,3.13Z" transform="translate(0 4.83)"/><g class="cls-4"><path class="cls-5" d="M111.94,4.59a1.66,1.66,0,0,1,1.19-.49,1.64,1.64,0,0,1,1.18.49,1.66,1.66,0,0,1,.49,1.18,1.68,1.68,0,0,1-.32,1l1.57,1.57a.25.25,0,0,1,0,.36.27.27,0,0,1-.36,0l-1.57-1.58A1.67,1.67,0,0,1,111.94,7a1.68,1.68,0,0,1,0-2.37Zm0,1.18A1.2,1.2,0,0,0,113.13,7,1.2,1.2,0,0,0,114,6.6a1.16,1.16,0,0,0,.34-.83,1.16,1.16,0,0,0-1.17-1.17,1.16,1.16,0,0,0-.83.34A1.2,1.2,0,0,0,112,5.77Z" transform="translate(0 4.83)"/><path class="cls-6" d="M105.3-4.83h24.09a9.74,9.74,0,0,1,2.32,2.32c3.66,5.14,1,12.08.58,13.05a54.26,54.26,0,0,1-16-3.58A54.37,54.37,0,0,1,103.09-.5a3.3,3.3,0,0,1-.11-2A3.68,3.68,0,0,1,105.3-4.83Z" transform="translate(0 4.83)"/></g><text class="cls-7" transform="translate(3.2 12.83)">What is a company AP PICTUERS</text></g></g></g></svg>