<svg xmlns="http://www.w3.org/2000/svg" xmlns:xlink="http://www.w3.org/1999/xlink" viewBox="0 0 67.96 17.7"><defs><style>.cls-1,.cls-3{opacity:0.5;}.cls-1{fill:url(#Áåçûìÿííûé_ãðàäèåíò_5);}.cls-2{isolation:isolate;}.cls-3{fill:url(#Áåçûìÿííûé_ãðàäèåíò_5-2);}.cls-4{clip-path:url(#clip-path);}.cls-5,.cls-7{fill:#fff;}.cls-6{mix-blend-mode:screen;fill:url(#linear-gradient);}.cls-7{font-size:5.68px;font-family:CenturyGothic, Century Gothic;}</style><linearGradient id="Áåçûìÿííûé_ãðàäèåíò_5" x1="38.07" y1="6.43" x2="58.23" y2="6.43" gradientUnits="userSpaceOnUse"><stop offset="0" stop-color="#e9f3f2"/><stop offset="0.33" stop-color="#eee8f1"/><stop offset="0.66" stop-color="#e1e7f5"/><stop offset="0.93" stop-color="#deeef4"/><stop offset="1" stop-color="#ddf1f4"/></linearGradient><linearGradient id="Áåçûìÿííûé_ãðàäèåíò_5-2" x1="0" y1="6.43" x2="38.07" y2="6.43" xlink:href="#Áåçûìÿííûé_ãðàäèåíò_5"/><clipPath id="clip-path" transform="translate(0 4.83)"><path class="cls-1" d="M58.23,3.13v6.6a3.14,3.14,0,0,1-3.13,3.14h-17V0h17A3.13,3.13,0,0,1,58.23,3.13Z"/></clipPath><linearGradient id="linear-gradient" x1="621.71" y1="10.54" x2="621.71" y2="-4.83" gradientTransform="matrix(-1, 0, 0, 1, 674.3, 0)" gradientUnits="userSpaceOnUse"><stop offset="0" stop-color="#1a1a1a"/><stop offset="1" stop-color="#4b4b4b"/></linearGradient></defs><g class="cls-2"><g id="Layer_2" data-name="Layer 2"><g id="Layer_1-2" data-name="Layer 1"><path class="cls-3" d="M38.07,0V12.87H3.13A3.14,3.14,0,0,1,0,9.73V3.14A3.13,3.13,0,0,1,3.13,0Z" transform="translate(0 4.83)"/><path class="cls-1" d="M58.23,3.13v6.6a3.14,3.14,0,0,1-3.13,3.14h-17V0h17A3.13,3.13,0,0,1,58.23,3.13Z" transform="translate(0 4.83)"/><g class="cls-4"><path class="cls-5" d="M46.29,4.59a1.66,1.66,0,0,1,1.19-.49,1.64,1.64,0,0,1,1.18.49,1.66,1.66,0,0,1,.49,1.18,1.68,1.68,0,0,1-.32,1L50.4,8.34a.25.25,0,0,1,0,.36.27.27,0,0,1-.36,0L48.47,7.12A1.67,1.67,0,0,1,46.29,7a1.68,1.68,0,0,1,0-2.37Zm0,1.18A1.2,1.2,0,0,0,47.48,7a1.2,1.2,0,0,0,.83-.35,1.16,1.16,0,0,0,.34-.83A1.16,1.16,0,0,0,47.48,4.6a1.16,1.16,0,0,0-.83.34A1.2,1.2,0,0,0,46.3,5.77Z" transform="translate(0 4.83)"/><path class="cls-6" d="M39.65-4.83H63.74a9.74,9.74,0,0,1,2.32,2.32c3.66,5.14,1,12.08.58,13.05A54.26,54.26,0,0,1,50.68,7,54.37,54.37,0,0,1,37.44-.5a3.3,3.3,0,0,1-.11-2A3.68,3.68,0,0,1,39.65-4.83Z" transform="translate(0 4.83)"/></g><text class="cls-7" transform="translate(4.37 12.83)">for review</text></g></g></g></svg>