<svg xmlns="http://www.w3.org/2000/svg" xmlns:xlink="http://www.w3.org/1999/xlink" viewBox="0 0 67.61 66.98"><defs><style>.cls-1{stroke:#fff;stroke-miterlimit:10;stroke-width:0.48px;fill:url(#radial-gradient);}.cls-2{fill:#fff;}</style><radialGradient id="radial-gradient" cx="27.02" cy="-18.24" r="73.89" gradientTransform="matrix(1, 0, 0, -1, 0, 67.89)" gradientUnits="userSpaceOnUse"><stop offset="0" stop-color="#f89b3d"/><stop offset="1" stop-color="#f36c21"/></radialGradient></defs><g id="Layer_2" data-name="Layer 2"><g id="Layer_1-2" data-name="Layer 1"><path class="cls-1" d="M59.52,9.42a12,12,0,0,0-4.24-.78H19.58a12,12,0,0,0-11.95,12v34.2A11.88,11.88,0,0,0,8,57.56,11.94,11.94,0,0,1,.24,46.39V12.19A12,12,0,0,1,12.2.24H47.9A12,12,0,0,1,59.52,9.42Z"/><path class="cls-1" d="M67.23,20.6V54.8A11.93,11.93,0,0,1,55.31,66.74H19.57A12,12,0,0,1,8,57.56a11.79,11.79,0,0,1-.33-2.77V20.59a12,12,0,0,1,12-11.95h35.7a12,12,0,0,1,12,12Z"/><g id="AP_FULL" data-name="AP FULL"><path class="cls-2" d="M30.7,21.24H23.4l.61,2.4-9.74,31.1h5.48l2.74-9.27h9.73L35,54.73h6Zm-7,18.84,3.65-14.36L31.6,40.08Z"/><path class="cls-2" d="M61.64,30.47a10.32,10.32,0,0,0-2.29-6.39,11,11,0,0,0-7.85-3.51h-.12c-6.23,0-7.88.1-10.26.12q-.06,17-.13,34.05h5.54V42.44a17.5,17.5,0,0,0,2.29,0C51.62,42.26,56,42,59,38.8A11.08,11.08,0,0,0,61.64,30.47Zm-7,4.87a6.76,6.76,0,0,1-4.34,1.94,9.86,9.86,0,0,1-3.55-.11V26c3.54-1.06,7.09.33,8.45,3a6,6,0,0,1-.61,6.34Z"/></g></g></g></svg>